<?xml version="1.0" encoding="UTF-8" standalone="no"?>
<!-- Created with Inkscape (http://www.inkscape.org/) -->

<svg
   xmlns:dc="http://purl.org/dc/elements/1.1/"
   xmlns:cc="http://creativecommons.org/ns#"
   xmlns:rdf="http://www.w3.org/1999/02/22-rdf-syntax-ns#"
   xmlns:svg="http://www.w3.org/2000/svg"
   xmlns="http://www.w3.org/2000/svg"
   xmlns:xlink="http://www.w3.org/1999/xlink"
   xmlns:sodipodi="http://sodipodi.sourceforge.net/DTD/sodipodi-0.dtd"
   xmlns:inkscape="http://www.inkscape.org/namespaces/inkscape"
   width="4212.9922"
   height="2979.9211"
   id="svg2"
   version="1.1"
   inkscape:version="0.48.4 r9939"
   sodipodi:docname="_3dscnamedocument.svg">
  <defs
     id="defs4">
    <clipPath
       clipPathUnits="userSpaceOnUse"
       id="clipPath3790">
      <rect
         style="fill:none;stroke:none"
         id="rect3792"
         width="311.12698"
         height="68.690376"
         x="957.62463"
         y="644.26044"
         transform="matrix(0,-1,1,0,0,0)" />
    </clipPath>
    <clipPath
       clipPathUnits="userSpaceOnUse"
       id="clipPath4005">
      <rect
         style="fill:none;stroke:none"
         id="rect4007"
         width="828.72913"
         height="1264.3069"
         x="251.73001"
         y="145.83717" />
    </clipPath>
    <clipPath
       clipPathUnits="userSpaceOnUse"
       id="clipPath4005-0">
      <rect
         style="fill:none;stroke:none"
         id="rect4007-9"
         width="828.72913"
         height="1264.3069"
         x="251.73001"
         y="145.83717" />
    </clipPath>
    <clipPath
       clipPathUnits="userSpaceOnUse"
       id="clipPath4005-8">
      <rect
         style="fill:none;stroke:none"
         id="rect4007-5"
         width="828.72913"
         height="1264.3069"
         x="251.73001"
         y="145.83717" />
    </clipPath>
    <clipPath
       clipPathUnits="userSpaceOnUse"
       id="clipPath4132">
      <rect
         style="fill:none;stroke:none"
         id="rect4134"
         width="762"
         height="108"
         x="1990"
         y="2741.9211"
         transform="matrix(0,1,-1,0,0,0)" />
    </clipPath>
  </defs>
  <sodipodi:namedview
     id="base"
     pagecolor="#ffffff"
     bordercolor="#666666"
     borderopacity="1.0"
     inkscape:pageopacity="0.0"
     inkscape:pageshadow="2"
     inkscape:zoom="0.25000001"
     inkscape:cx="2268.6146"
     inkscape:cy="1615.0216"
     inkscape:document-units="mm"
     inkscape:current-layer="layer2"
     showgrid="false"
     units="mm"
     showguides="true"
     inkscape:guide-bbox="true"
     inkscape:snap-global="false"
     inkscape:window-width="1920"
     inkscape:window-height="1025"
     inkscape:window-x="-2"
     inkscape:window-y="-3"
     inkscape:window-maximized="1">
    <sodipodi:guide
       orientation="1,0"
       position="0,2979.25"
       id="guide3817" />
    <sodipodi:guide
       orientation="0,1"
       position="-1.109375,2979.9219"
       id="guide3819" />
    <inkscape:grid
       type="xygrid"
       id="grid3821"
       empspacing="5"
       visible="true"
       enabled="true"
       snapvisiblegridlinesonly="true" />
    <sodipodi:guide
       orientation="1,0"
       position="4213.0085,-0.43089319"
       id="guide3830" />
    <sodipodi:guide
       orientation="0,1"
       position="4212.5224,-0.011048543"
       id="guide3832" />
  </sodipodi:namedview>
  <metadata
     id="metadata7">
    <rdf:RDF>
      <cc:Work
         rdf:about="">
        <dc:format>image/svg+xml</dc:format>
        <dc:type
           rdf:resource="http://purl.org/dc/dcmitype/StillImage" />
        <dc:title />
      </cc:Work>
    </rdf:RDF>
  </metadata>
  <g
     inkscape:label="Base"
     inkscape:groupmode="layer"
     id="layer1"
     transform="translate(0,1927.5594)"
     style="display:none"
     sodipodi:insensitive="true">
    <image
       sodipodi:absref="_logo"
       xlink:href="_ref_logo"
       y="-1927.5602"
       x="0"
       id="image3802"
       height="2979.6748"
       width="4212.9951" />
  </g>
  <g
     inkscape:groupmode="layer"
     id="layer3"
     inkscape:label="Sfondo"
     style="display:inline"
     sodipodi:insensitive="true">
    <rect
       style="fill:#333132;fill-opacity:1;stroke:none"
       id="rect3828"
       width="4217.1235"
       height="2974.8203"
       x="-0.0095191207"
       y="-0.010286362" />
  </g>
  <g
     inkscape:groupmode="layer"
     id="layer2"
     inkscape:label="Scritte">
    <path
       style="fill:none;stroke:#ffffff;stroke-width:3.54330707;stroke-linecap:round;stroke-linejoin:round;stroke-miterlimit:4;stroke-opacity:1;stroke-dasharray:none"
       d="m 3681.1979,97.046807 -3574.1979,0 0,2707.624293"
       id="path3823"
       inkscape:connector-curvature="0" />
    <path
       style="fill:none;stroke:#ffffff;stroke-width:3.54330707;stroke-linecap:round;stroke-linejoin:round;stroke-miterlimit:4;stroke-opacity:1;stroke-dasharray:none"
       d="m 1250.5183,2884.8153 2865.7317,0 0,-2572.10093"
       id="path3825"
       inkscape:connector-curvature="0" />
    <text
       xml:space="preserve"
       style="font-size:59.16026306px;font-style:normal;font-weight:normal;line-height:125%;letter-spacing:0px;word-spacing:0px;fill:#000000;fill-opacity:1;stroke:none;font-family:Sans"
       x="3124.6196"
       y="404.65564"
       id="text3834"
       sodipodi:linespacing="125%"><tspan
         sodipodi:role="line"
         id="tspan3836"
         x="3124.6196"
         y="404.65564"
         style="font-style:italic;fill:#fffefe;fill-opacity:1;-inkscape-font-specification:Sans Italic">Description:</tspan></text>
    <text
       sodipodi:linespacing="125%"
       id="text3838"
       y="613.95923"
       x="3124.6196"
       style="font-size:59.16026306px;font-style:normal;font-weight:normal;line-height:125%;letter-spacing:0px;word-spacing:0px;fill:#000000;fill-opacity:1;stroke:none;font-family:Sans"
       xml:space="preserve"><tspan
         style="font-style:italic;fill:#fffefe;fill-opacity:1;-inkscape-font-specification:Sans Italic"
         y="613.95923"
         x="3124.6196"
         id="tspan3840"
         sodipodi:role="line">Measures (depth, width, height):</tspan></text>
    <text
       xml:space="preserve"
       style="font-size:59.16026306px;font-style:normal;font-weight:normal;line-height:125%;letter-spacing:0px;word-spacing:0px;fill:#000000;fill-opacity:1;stroke:none;font-family:Sans"
       x="3124.6196"
       y="816.19177"
       id="text3842"
       sodipodi:linespacing="125%"><tspan
         sodipodi:role="line"
         id="tspan3844"
         x="3124.6196"
         y="816.19177"
         style="font-style:italic;fill:#fffefe;fill-opacity:1;-inkscape-font-specification:Sans Italic">Diameter:</tspan></text>
    <text
       sodipodi:linespacing="125%"
       id="text3846"
       y="488.09424"
       x="3424.4329"
       style="font-size:59.16026306px;font-style:normal;font-weight:normal;line-height:125%;letter-spacing:0px;word-spacing:0px;fill:#000000;fill-opacity:1;stroke:none;font-family:Sans"
       xml:space="preserve"><tspan
         style="font-style:normal;fill:#fffefe;fill-opacity:1;-inkscape-font-specification:Sans"
         y="488.09424"
         x="3424.4329"
         id="tspan3848"
         sodipodi:role="line">Fragment of column:</tspan></text>
    <text
       xml:space="preserve"
       style="font-size:59.16026306px;font-style:normal;font-weight:normal;line-height:125%;letter-spacing:0px;word-spacing:0px;fill:#000000;fill-opacity:1;stroke:none;font-family:Sans"
       x="3424.4329"
       y="707.29736"
       id="text3850"
       sodipodi:linespacing="125%"><tspan
         sodipodi:role="line"
         id="tspan3852"
         x="3424.4329"
         y="707.29736"
         style="font-style:normal;fill:#fffefe;fill-opacity:1;-inkscape-font-specification:Sans">_3dscmisure</tspan></text>
    <text
       sodipodi:linespacing="125%"
       id="text3854"
       y="886.90247"
       x="3424.4329"
       style="font-size:59.16026306px;font-style:normal;font-weight:normal;line-height:125%;letter-spacing:0px;word-spacing:0px;fill:#000000;fill-opacity:1;stroke:none;font-family:Sans"
       xml:space="preserve"><tspan
         style="font-style:normal;fill:#fffefe;fill-opacity:1;-inkscape-font-specification:Sans"
         y="886.90247"
         x="3424.4329"
         id="tspan3856"
         sodipodi:role="line">A) 54,2 cm:</tspan></text>
    <text
       xml:space="preserve"
       style="font-size:52.02415085px;font-style:normal;font-weight:normal;line-height:125%;letter-spacing:0px;word-spacing:0px;fill:#000000;fill-opacity:1;stroke:none;font-family:Sans"
       x="-329.9975"
       y="199.44539"
       id="text3842-6"
       sodipodi:linespacing="125%"
       transform="matrix(0,-1,1,0,0,0)"><tspan
         sodipodi:role="line"
         id="tspan3844-5"
         x="-329.9975"
         y="199.44539"
         style="font-style:normal;fill:#fffefe;fill-opacity:1;-inkscape-font-specification:Sans">Front</tspan></text>
    <text
       transform="matrix(0,-1,1,0,0,0)"
       sodipodi:linespacing="125%"
       id="text3928"
       y="1247.4454"
       x="-329.9975"
       style="font-size:52.02415085px;font-style:normal;font-weight:normal;line-height:125%;letter-spacing:0px;word-spacing:0px;fill:#000000;fill-opacity:1;stroke:none;font-family:Sans"
       xml:space="preserve"><tspan
         style="font-style:normal;fill:#fffefe;fill-opacity:1;-inkscape-font-specification:Sans"
         y="1247.4454"
         x="-329.9975"
         id="tspan3930"
         sodipodi:role="line">Right</tspan></text>
    <text
       xml:space="preserve"
       style="font-size:52.02415085px;font-style:normal;font-weight:normal;line-height:125%;letter-spacing:0px;word-spacing:0px;fill:#000000;fill-opacity:1;stroke:none;font-family:Sans"
       x="-329.9975"
       y="2096.7002"
       id="text3932"
       sodipodi:linespacing="125%"
       transform="matrix(0,-1,1,0,0,0)"><tspan
         sodipodi:role="line"
         id="tspan3934"
         x="-329.9975"
         y="2096.7002"
         style="font-style:normal;fill:#fffefe;fill-opacity:1;-inkscape-font-specification:Sans">Top</tspan></text>
    <text
       transform="matrix(0,-1,1,0,0,0)"
       sodipodi:linespacing="125%"
       id="text3936"
       y="199.44539"
       x="-1742.2817"
       style="font-size:52.02415085px;font-style:normal;font-weight:normal;line-height:125%;letter-spacing:0px;word-spacing:0px;fill:#000000;fill-opacity:1;stroke:none;font-family:Sans"
       xml:space="preserve"><tspan
         style="font-style:normal;fill:#fffefe;fill-opacity:1;-inkscape-font-specification:Sans"
         y="199.44539"
         x="-1742.2817"
         id="tspan3938"
         sodipodi:role="line">Back</tspan></text>
    <text
       xml:space="preserve"
       style="font-size:52.02415085px;font-style:normal;font-weight:normal;line-height:125%;letter-spacing:0px;word-spacing:0px;fill:#000000;fill-opacity:1;stroke:none;font-family:Sans"
       x="-1742.2817"
       y="1247.4454"
       id="text3940"
       sodipodi:linespacing="125%"
       transform="matrix(0,-1,1,0,0,0)"><tspan
         sodipodi:role="line"
         id="tspan3942"
         x="-1742.2817"
         y="1247.4454"
         style="font-style:normal;fill:#fffefe;fill-opacity:1;-inkscape-font-specification:Sans">Left</tspan></text>
    <text
       transform="matrix(0,-1,1,0,0,0)"
       sodipodi:linespacing="125%"
       id="text3944"
       y="2096.7002"
       x="-1742.2817"
       style="font-size:52.02415085px;font-style:normal;font-weight:normal;line-height:125%;letter-spacing:0px;word-spacing:0px;fill:#000000;fill-opacity:1;stroke:none;font-family:Sans"
       xml:space="preserve"><tspan
         style="font-style:normal;fill:#fffefe;fill-opacity:1;-inkscape-font-specification:Sans"
         y="2096.7002"
         x="-1742.2817"
         id="tspan3946"
         sodipodi:role="line">Bottom</tspan></text>
    <text
       xml:space="preserve"
       style="font-size:52.02415085px;font-style:normal;font-weight:normal;line-height:125%;letter-spacing:0px;word-spacing:0px;fill:#000000;fill-opacity:1;stroke:none;font-family:Sans"
       x="-1742.2817"
       y="3131.4453"
       id="text3948"
       sodipodi:linespacing="125%"
       transform="matrix(0,-1,1,0,0,0)"><tspan
         sodipodi:role="line"
         id="tspan3950"
         x="-1742.2817"
         y="3131.4453"
         style="font-style:normal;fill:#fffefe;fill-opacity:1;-inkscape-font-specification:Sans">Section</tspan></text>
    <text
       sodipodi:linespacing="125%"
       id="text3952"
       y="247.63985"
       x="3738.8293"
       style="font-size:209.79074097px;font-style:normal;font-weight:normal;line-height:125%;letter-spacing:0px;word-spacing:0px;fill:#000000;fill-opacity:1;stroke:none;font-family:Sans"
       xml:space="preserve"><tspan
         style="font-style:normal;fill:#fffefe;fill-opacity:1;-inkscape-font-specification:Sans"
         y="247.63985"
         x="3738.8293"
         id="tspan3954"
         sodipodi:role="line">_3dscnomeblocco</tspan></text>
    <text
       sodipodi:linespacing="125%"
       id="text3956"
       y="2887.7966"
       x="95.911674"
       style="font-size:74.23442841px;font-style:normal;font-weight:normal;line-height:125%;letter-spacing:0px;word-spacing:0px;fill:#000000;fill-opacity:1;stroke:none;font-family:Sans"
       xml:space="preserve"><tspan
         style="font-style:normal;fill:#fffefe;fill-opacity:1;-inkscape-font-specification:Sans"
         y="2887.7966"
         x="95.911674"
         id="tspan3958"
         sodipodi:role="line">_3dsctitolo</tspan></text>
    <text
       xml:space="preserve"
       style="font-size:51.09157181px;font-style:normal;font-weight:normal;line-height:125%;letter-spacing:0px;word-spacing:0px;fill:#000000;fill-opacity:1;stroke:none;font-family:Sans"
       x="2007.2953"
       y="2752.7935"
       id="text3960"
       sodipodi:linespacing="125%"><tspan
         sodipodi:role="line"
         id="tspan3962"
         x="2007.2953"
         y="2752.7935"
         style="font-style:normal;fill:#fffefe;fill-opacity:1;-inkscape-font-specification:Sans">0</tspan></text>
    <text
       sodipodi:linespacing="125%"
       id="text3964"
       y="2752.7935"
       x="2134.5745"
       style="font-size:51.09157181px;font-style:normal;font-weight:normal;line-height:125%;letter-spacing:0px;word-spacing:0px;fill:#000000;fill-opacity:1;stroke:none;font-family:Sans"
       xml:space="preserve"><tspan
         style="font-style:normal;fill:#fffefe;fill-opacity:1;-inkscape-font-specification:Sans"
         y="2752.7935"
         x="2134.5745"
         id="tspan3966"
         sodipodi:role="line">10</tspan></text>
    <text
       xml:space="preserve"
       style="font-size:51.09157181px;font-style:normal;font-weight:normal;line-height:125%;letter-spacing:0px;word-spacing:0px;fill:#000000;fill-opacity:1;stroke:none;font-family:Sans"
       x="2271.7532"
       y="2752.7935"
       id="text3968"
       sodipodi:linespacing="125%"><tspan
         sodipodi:role="line"
         id="tspan3970"
         x="2271.7532"
         y="2752.7935"
         style="font-style:normal;fill:#fffefe;fill-opacity:1;-inkscape-font-specification:Sans">20</tspan></text>
    <text
       xml:space="preserve"
       style="font-size:51.09157181px;font-style:normal;font-weight:normal;line-height:125%;letter-spacing:0px;word-spacing:0px;fill:#000000;fill-opacity:1;stroke:none;font-family:Sans"
       x="2412.4675"
       y="2752.7935"
       id="text3972"
       sodipodi:linespacing="125%"><tspan
         sodipodi:role="line"
         id="tspan3974"
         x="2412.4675"
         y="2752.7935"
         style="font-style:normal;fill:#fffefe;fill-opacity:1;-inkscape-font-specification:Sans">30</tspan></text>
    <text
       sodipodi:linespacing="125%"
       id="text3976"
       y="2752.7935"
       x="2549.6462"
       style="font-size:51.09157181px;font-style:normal;font-weight:normal;line-height:125%;letter-spacing:0px;word-spacing:0px;fill:#000000;fill-opacity:1;stroke:none;font-family:Sans"
       xml:space="preserve"><tspan
         style="font-style:normal;fill:#fffefe;fill-opacity:1;-inkscape-font-specification:Sans"
         y="2752.7935"
         x="2549.6462"
         id="tspan3978"
         sodipodi:role="line">40</tspan></text>
    <text
       xml:space="preserve"
       style="font-size:51.09157181px;font-style:normal;font-weight:normal;line-height:125%;letter-spacing:0px;word-spacing:0px;fill:#000000;fill-opacity:1;stroke:none;font-family:Sans"
       x="2674.8042"
       y="2752.7935"
       id="text3980"
       sodipodi:linespacing="125%"><tspan
         sodipodi:role="line"
         id="tspan3982"
         x="2674.8042"
         y="2752.7935"
         style="font-style:normal;fill:#fffefe;fill-opacity:1;-inkscape-font-specification:Sans">50 cm</tspan></text>
    <path
       style="fill:none;stroke:#ffffff;stroke-width:2.83464575;stroke-linecap:butt;stroke-linejoin:miter;stroke-miterlimit:4;stroke-opacity:1;stroke-dasharray:none"
       d="m 3016.75,1503.1711 0,1237.0408"
       id="path3989"
       inkscape:connector-curvature="0" />
    <text
       xml:space="preserve"
       style="font-size:59.16026306px;font-style:normal;font-weight:normal;line-height:125%;letter-spacing:0px;word-spacing:0px;fill:#000000;fill-opacity:1;stroke:none;font-family:Sans"
       x="3424.4329"
       y="954.78473"
       id="text4155"
       sodipodi:linespacing="125%"><tspan
         sodipodi:role="line"
         id="tspan4157"
         x="3424.4329"
         y="954.78473"
         style="font-style:normal;fill:#fffefe;fill-opacity:1;-inkscape-font-specification:Sans">B) 53,8 cm:</tspan></text>
    <text
       sodipodi:linespacing="125%"
       id="text4159"
       y="1024.7882"
       x="3424.4329"
       style="font-size:59.16026306px;font-style:normal;font-weight:normal;line-height:125%;letter-spacing:0px;word-spacing:0px;fill:#000000;fill-opacity:1;stroke:none;font-family:Sans"
       xml:space="preserve"><tspan
         style="font-style:normal;fill:#fffefe;fill-opacity:1;-inkscape-font-specification:Sans"
         y="1024.7882"
         x="3424.4329"
         id="tspan4161"
         sodipodi:role="line">A-B: 35 cm</tspan></text>
  </g>
  <g
     inkscape:groupmode="layer"
     id="layer4"
     inkscape:label="Sezione"
     style="display:inline">
    <path
       style="fill:#41759a;fill-opacity:1;stroke:#41759a;stroke-width:2.83464575;stroke-linecap:round;stroke-linejoin:round;stroke-miterlimit:4;stroke-opacity:1;stroke-dasharray:none"
       d="m 152,667.12743 79.5,0"
       id="path3985"
       inkscape:connector-curvature="0" />
    <path
       inkscape:connector-curvature="0"
       id="path3987"
       d="m 1043.3566,667.12743 79.5,0"
       style="fill:#41759a;fill-opacity:1;stroke:#41759a;stroke-width:2.83464575;stroke-linecap:round;stroke-linejoin:round;stroke-miterlimit:4;stroke-opacity:1;stroke-dasharray:none" />
    <path
       sodipodi:type="arc"
       style="fill:none;stroke:#0f9eb3;stroke-width:2.59615207;stroke-linecap:round;stroke-linejoin:round;stroke-miterlimit:4;stroke-opacity:1;stroke-dasharray:20.76921746, 20.76921746;stroke-dashoffset:0"
       id="path4117"
       sodipodi:cx="3220"
       sodipodi:cy="2075.9211"
       sodipodi:rx="402"
       sodipodi:ry="402"
       d="m 3622,2075.9211 a 402,402 0 1 1 -804,0 402,402 0 1 1 804,0 z"
       transform="matrix(0.95538119,0,0,0.95538119,529.18728,118.7967)" />
    <g
       id="layer1-3"
       transform="matrix(1.6052689,0,0,1.6052689,3044.1001,1374.4865)"
       style="fill:none;stroke:#0f9eb3;stroke-opacity:1;stroke-width:2.20729816;stroke-miterlimit:4;stroke-dasharray:none">
      <path
         d="m 435.17,140.32 0.068,-0.066 1.796,-2.306 2.929,-3.412 1.118,-0.925 1.845,-1.464 1.379,-0.945 1.238,-0.642 0.263,-0.196 0.988,-1.693 0.116,-0.444 0.054,-0.773 -1.399,-1.729 -0.191,-0.297 -0.052,-0.081 -0.323,-0.615 -1.271,-2.372 -2.742,-4.737 -0.41,-0.729 -0.069,-0.11 -0.399,-0.63 -3.724,-5.897 -1.366,-2.134 -0.54,-0.763 -1.793,-2.735 -0.591,-0.908 -2.691,-3.7428 -0.545,-0.7604 -0.615,-0.7973 -3.407,-4.5183 -1.904,-2.4112 -1.967,-2.6099 -1.985,-2.4873 -1.508,-1.9427 -0.903,-0.9812 -1.629,-1.7808 -2.259,-2.6835 -1.751,-2.0408 -1.379,-1.4939 -0.897,-0.9395 -3.395,-3.4512 -1.178,-1.2044 -4.273,-4.3049 -1.123,-0.9689 -1.043,-0.8095 -0.49,-0.4808 -3.881,-3.5616 -1.246,-1.0989 -3.588,-3.0907 -1.48,-1.2707 -1.106,-0.9247 -3.557,-2.7694 -1.412,-1.1136 -2.181,-1.7171 -0.962,-0.7187 -1.766,-1.3 -2.046,-1.5306 -2.661,-1.9231 -3.751,-2.5683 -2.303,-1.5551 -4.013,-2.3843 -1.4,-0.7923 -3.653,-2.1904 -1.04,-0.6206 -2.254,-1.3124 -0.856,-0.5053 -0.513,-0.2845 -3.037,-1.8004 -0.228,-0.1251 -3.382,-1.8177 -1.855,-1.0572 -3.054,-1.3099 -0.939,-0.412 -4.344,-2.3058 -0.187,-0.0859 -0.856,-0.3532 -4.189,-1.6974 -1.46,-0.5396 -1.167,-0.5544 -3.278,-1.3957 -3.954,-1.3761 -0.392,-0.1374 -0.712,-0.2477 -5.335,-1.8667 -3.245,-1.0842 -3.562,-1.1848 -0.431,-0.1373 -0.908,-0.2772 L 300.779,9.05868 297.124,7.97939 296.726,7.8641 295.009,7.46673 291.975,6.76519 291.418,6.63518 290.439,6.42914 285.477,5.33758 280.144,4.32207 279.899,4.27546 279.583,4.22395 279.355,4.1847 269.778,2.5952 266.801,2.18066 266.229,2.11443 260.585,1.47912 258.407,1.22401 252.642,0.748144 251.656,0.681915 250.543,0.598515 248.065,0.470963 242.382,0.154535 240.331,0.107929 230.424,0.0147176 229.435,0.0122647 228.967,0 l -4.948,0.164346 -4.283,0.210953 -3.255,0.198687 -4.229,0.304164 -3.113,0.26001 -4.074,0.47587 -2.963,0.36794 -2.487,0.41454 -2.576,0.42436 -3.775,0.56172 -1.391,0.19624 -2.139,0.37775 -3.343,0.65003 -4.999,1.19212 -1.231,0.29681 -0.574,0.13491 -4.688,1.25835 -4.045,1.10627 -2.286,0.72117 -1.533,0.60097 -2.382,0.64509 -3.476,1.1137 -4.204,1.3172 -1.307,0.4587 -4.099,1.4963 -0.493,0.179 -0.29,0.1153 -6.601,2.6247 -5.578,2.4406 -0.498,0.2183 -0.664,0.3091 -6.167,2.8847 -4.842,2.5142 -5.063,2.6148 -1.567,0.8512 -3.69,2.0948 -4.405,2.5903 -0.854,0.5176 -2.906,1.8667 -4.217,2.6957 -2.262,1.5478 -3.9095,2.6958 -3.3581,2.4529 -2.8699,2.0458 -2.6418,2.0555 -2.6909,2.0703 -3.1054,2.5388 -1.0253,0.8291 -5.2886,4.3883 -1.8372,1.6336 -1.8789,1.6877 -3.1202,2.9214 -2.3867,2.3229 -1.8814,1.8152 -1.9623,2.0948 -2.5854,2.735 -5.708,6.5052 -0.1153,0.13 -0.0564,0.0687 -3.0882,3.6892 -3.6426,4.5698 -1.0303,1.224 -0.8511,1.1087 -5.8454,7.8473 -1.0474,1.496 -0.7187,1.05 -1.9206,2.919 -2.2101,3.856 -0.444,0.738 -2.5854,4.342 -1.3785,2.502 -0.4489,0.969 -1.5675,3.38 -0.0932,0.162 -0.3728,0.772 -2.3499,4.752 -0.9738,1.849 -1.825,3.447 -0.6697,1.148 -2.5216,4.128 -0.4955,0.996 -1.0645,2.301 -1.3369,2.946 -0.8389,1.81 -1.2927,3.275 -1.0131,2.622 -0.7775,1.815 -0.4563,1.261 -2.31064,6.159 -0.05887,0.184 -0.05151,0.155 -0.07359,0.26 -1.64101,5.791 -1.05231,3.574 -0.30171,0.839 -0.18888,1.418 -1.42025,5.251 -0.68682,2.255 -0.27963,1.28 -1.26817,6.059 -0.13,0.591 -0.287,1.486 -0.7604,4.08 -0.39493,2.472 -0.20359,1.477 -0.264916,2.136 -0.313976,3.076 -0.193781,1.933 L 0,208.757 l 0.0269823,0.468 0.2698227,1.592 0.107929,0.785 0.110382,0.216 0.659834,0.79 0.19869,0.108 0.6255,0.456 0.78494,0.341 0.99834,0.164 3.11277,0.368 1.48403,0.174 1.10627,0.312 2.65161,1.141 1.7195,0.63 4.0498,1.406 3.0882,0.789 4.3417,0.859 0.942,0.13 4.2386,0.473 2.9485,0.704 3.309,0.628 2.1855,0.525 1.5159,0.241 1.6337,0.311 2.5609,0.4 0.9247,0.191 1.8544,0.484 2.7375,0.794 5.3866,1.2 0.9174,0.144 2.3377,0.476 1.3025,0.231 1.1234,0.25 2.8135,0.868 1.9035,0.53 2.4799,0.655 0.4538,0.16 5.367,1.153 0.5691,0.085 1.6042,0.265 3.3115,0.579 0.9125,0.214 7.788,2.251 1.0327,0.327 0.7678,0.095 1.9476,0.258 6.7358,1.19 3.2475,0.9 1.788,0.498 1.607,0.368 5.99,1.677 1.945,0.582 2.711,0.645 4.263,0.964 2.046,0.397 4.535,0.991 1.572,0.54 5.267,1.136 0.243,0.063 0.132,0.027 4.465,1.031 1.744,0.505 3.483,1.182 0.804,0.108 6.351,1.823 4.423,1.035 0.556,0.159 3.403,1.016 3.029,0.64 5.941,1.05 0.331,0.069 3.218,0.892 1.291,0.246 1.81,0.404 3.527,0.807 3.466,0.81 3.999,0.866 2.394,0.152 1.243,0.208 4.119,0.319 5.646,0.353 0.098,0.005 0.091,-0.012 2.22,0.098 1.516,0.216 1.352,0.272 2.288,0.528 2.215,0.848 1.639,0.4 1.92,0.336 1.813,0.68 1.106,0.282 2.024,0.307 5.014,0.704 3.338,0.12 0.802,0.027 3.265,0.139 3.608,0.187 1.242,0.103 3.105,0.154 3.346,-0.782 2.529,-0.169 3.964,-1.411 1.405,-0.449 0.677,-0.228 0.464,-0.144 1.464,-0.339 3.38,-0.849 2.424,-0.816 2.931,-1.301 0.851,-0.353 0.746,-0.247 1.989,-0.822 3.251,-1.546 0.743,-0.149 1.187,-0.584 2.642,-1.401 2.759,-1.52 0.896,-0.584 0.542,-0.309 2.666,-1.825 3.537,-1.693 5.576,-3.321 0.471,-0.285 0.488,-0.235 -0.012,-0.015 0.539,-0.299 6.142,-3.356 3.285,-1.866 1.604,-0.881 0.361,-0.204 0.25,-0.176 3.979,-3.098 4.461,-2.826 0.209,-0.159 1.126,-0.793 6.125,-4.381 2.715,-1.749 2.978,-2.045 3.412,-2.402 0.626,-0.549 3.75,-2.017 0.611,-0.483 4.243,-2.624 0.621,-0.462 0.491,-0.547 2.273,-1.832 4.004,-3.211 0.495,-0.375 0.272,-0.255 0.57,-0.621 1.935,-1.712 0.829,-0.819 2.477,-2.598 2.299,-2.242 1.069,-0.917 0.712,-0.758 1.339,-1.119 1.879,-1.231 0.505,-0.304 0.285,-0.204 0.002,0.034 1.744,-0.522 1.867,0.324 0.724,-0.037 0.23,0.071 4.227,1.597 0.313,0.076 0.153,-0.002 1.022,-0.113 2.193,-0.199 1.47,-0.706 4.359,-2.733 3.846,-3.223 2.33,-1.805 0.049,-0.047 0.101,-0.088 2.796,-2.689 2.232,-2.266 1.241,-1.222 0.511,-0.473 1.881,-1.45 2.956,-2.293 0.679,-0.837 2.392,-2.082 0.225,-0.165 0.143,-0.091 1.982,-0.765 1.317,-0.719 1.322,-1.057 1.06,-1.381 2.786,-3.12 0.599,-0.721 1.086,-1.003 1.166,-1.153 1.506,-1.423 1.099,-0.944 2.121,-1.654 1.683,-0.998 2.095,-1.528 2.858,-1.916 0.534,-0.341 0.156,-0.069 2.438,-1.656 2.369,-1.599 0.471,-0.387 3.483,-3.454 0.181,-0.208 1.563,-1.342 1.989,-1.219 z"
         stroke-miterlimit="2.00000000000"
         transform="matrix(1,0,0,-1,113.661,692.446)"
         id="polygon36"
         inkscape:connector-curvature="0"
         style="fill:none;stroke:#0f9eb3;stroke-width:2.20729816;stroke-linecap:butt;stroke-linejoin:miter;stroke-miterlimit:4;stroke-opacity:1;stroke-dasharray:none" />
    </g>
    <path
       inkscape:connector-curvature="0"
       id="path4163"
       d="m 152,1169.1732 79.5,0"
       style="fill:#41759a;fill-opacity:1;stroke:#41759a;stroke-width:2.83464575;stroke-linecap:round;stroke-linejoin:round;stroke-miterlimit:4;stroke-opacity:1;stroke-dasharray:none" />
    <path
       style="fill:#41759a;fill-opacity:1;stroke:#41759a;stroke-width:2.83464575;stroke-linecap:round;stroke-linejoin:round;stroke-miterlimit:4;stroke-opacity:1;stroke-dasharray:none"
       d="m 1043.3566,1169.1732 79.5,0"
       id="path4165"
       inkscape:connector-curvature="0" />
    <text
       xml:space="preserve"
       style="font-size:65.21903992000000017px;font-style:normal;font-weight:normal;line-height:125%;letter-spacing:0px;word-spacing:0px;fill:#41759a;fill-opacity:1;stroke:none;font-family:Sans"
       x="156.78067"
       y="659.19666"
       id="text4167"
       sodipodi:linespacing="125%"><tspan
         sodipodi:role="line"
         id="tspan4169"
         x="156.78067"
         y="659.19666">A</tspan></text>
    <text
       sodipodi:linespacing="125%"
       id="text4171"
       y="1158.1967"
       x="156.78067"
       style="font-size:65.21903992px;font-style:normal;font-weight:normal;line-height:125%;letter-spacing:0px;word-spacing:0px;fill:#41759a;fill-opacity:1;stroke:none;font-family:Sans"
       xml:space="preserve"><tspan
         y="1158.1967"
         x="156.78067"
         id="tspan4173"
         sodipodi:role="line">B</tspan></text>
  </g>
  <g
     inkscape:groupmode="layer"
     id="layer6"
     inkscape:label="SezioneRaster"
     style="display:none">
    <image
       sodipodi:absref="_image_8"
       xlink:href="_ref_image_8"
       clip-path="url(#clipPath4005-0)"
       height="1400"
       width="1400"
       id="image4021"
       x="-44.588303"
       y="115.90588"
       transform="translate(2948.4532,1434.0126)" />
    <image
       sodipodi:absref="_image7"
       xlink:href="_ref_image7"
       transform="translate(2948.4532,1434.0126)"
       y="115.90588"
       x="-44.588303"
       id="image4019"
       width="1400"
       height="1400"
       clip-path="url(#clipPath4005-8)" />
  </g>
  <g
     inkscape:groupmode="layer"
     id="layer5"
     inkscape:label="Blocchi">
    <image
       sodipodi:absref="_image1"
       xlink:href="_ref_image1"
       y="115.90588"
       id="image4000"
       clip-path="url(#clipPath4005)"
       width="1200"
       height="1200"
       x="44" />
    <image
       sodipodi:absref="_image3"
       xlink:href="_ref_image3"
       clip-path="url(#clipPath4005)"
       id="image4010"
       y="115.90588"
       transform="translate(974.46926,0)"
       inkscape:label="#image4012"
       x="44"
       width="1200"
       height="1200" />
    <image
       sodipodi:absref="_image2"
       xlink:href="_ref_image2"
       transform="translate(1856.4532,0)"
       y="115.90588"
       id="image4011"
       clip-path="url(#clipPath4005)"
       x="45"
       width="1200"
       height="1200" />
    <image
       sodipodi:absref="_image4"
       xlink:href="_ref_image4"
       clip-path="url(#clipPath4005)"
       id="image4013"
       y="115.90588"
       transform="translate(0,1309.5618)"
       width="1200"
       height="1200"
       x="100" />
    <image
       sodipodi:absref="_image5"
       xlink:href="_ref_image5"
       transform="translate(974.46926,1309.5618)"
       y="115.90588"
       id="image4015"
       clip-path="url(#clipPath4005)"
       x="44"
       width="1200"
       height="1200" />
    <image
       sodipodi:absref="_image6"
       xlink:href="_ref_image6"
       clip-path="url(#clipPath4005)"
       id="image4017"
       y="115.90588"
       transform="translate(1856.4532,1309.5618)"
       x="44"
       width="1200"
       height="1200" />
    <image
       sodipodi:absref="_image2"
       xlink:href="_ref_image2"
       y="1666.5"
       x="-2972.4211"
       id="image4127"
       width="1400"
       height="1400"
       transform="matrix(0,-1,1,0,0,0)"
       clip-path="url(#clipPath4132)" />
  </g>
</svg>
